<svg xmlns="http://www.w3.org/2000/svg" xmlns:xlink="http://www.w3.org/1999/xlink" width="6300" zoomAndPan="magnify" viewBox="0 0 4725 2834.999876" height="3779" preserveAspectRatio="xMidYMid meet" version="1.0"><defs><clipPath id="be286a37fd"><path d="M 246.324219 946 L 4479.769531 946 L 4479.769531 1888 L 246.324219 1888 Z M 246.324219 946 " clip-rule="nonzero"/></clipPath><clipPath id="3afb796198"><path d="M 246.324219 1887 L 4479.769531 1887 L 4479.769531 2829 L 246.324219 2829 Z M 246.324219 1887 " clip-rule="nonzero"/></clipPath><clipPath id="87aa3ea6ee"><path d="M 246.324219 6 L 4479.769531 6 L 4479.769531 947 L 246.324219 947 Z M 246.324219 6 " clip-rule="nonzero"/></clipPath></defs><g clip-path="url(#be286a37fd)"><path fill="#006a42" d="M 246.324219 946.960938 L 4479.769531 946.960938 L 4479.769531 1887.441406 L 246.324219 1887.441406 Z M 246.324219 946.960938 " fill-opacity="1" fill-rule="nonzero"/></g><g clip-path="url(#3afb796198)"><path fill="#c22229" d="M 4479.769531 1887.867188 L 4479.769531 2443.726562 C 4479.769531 2656.269531 4307.671875 2828.351562 4095.105469 2828.351562 L 630.988281 2828.351562 C 418.421875 2828.351562 246.324219 2656.269531 246.324219 2443.726562 L 246.324219 1887.867188 Z M 4479.769531 1887.867188 " fill-opacity="1" fill-rule="nonzero"/></g><g clip-path="url(#87aa3ea6ee)"><path fill="#fdba0b" d="M 4479.769531 391.101562 L 4479.769531 946.960938 L 246.324219 946.960938 L 246.324219 391.101562 C 246.324219 178.558594 418.421875 6.476562 630.988281 6.476562 L 4094.679688 6.476562 C 4307.246094 6.476562 4479.769531 178.558594 4479.769531 391.101562 Z M 4479.769531 391.101562 " fill-opacity="1" fill-rule="nonzero"/></g></svg>